<svg width="389" height="125" viewBox="0 0 389 125" fill="none" xmlns="http://www.w3.org/2000/svg">
<path d="M194.18 124.71C301.263 124.71 388.07 119.642 388.07 113.39C388.07 107.138 301.263 102.07 194.18 102.07C87.0975 102.07 0.290039 107.138 0.290039 113.39C0.290039 119.642 87.0975 124.71 194.18 124.71Z" fill="#FFFCFC"/>
<path d="M245.69 97.2401L239.17 93.8701L229.96 107.52L235.49 112.36L245.69 97.2401Z" fill="#FF8B7B"/>
<path d="M230.25 106.87C230.287 106.863 230.321 106.845 230.348 106.818C230.374 106.791 230.393 106.757 230.4 106.72C230.406 106.682 230.399 106.643 230.381 106.608C230.363 106.574 230.335 106.547 230.3 106.53C229.95 106.34 226.87 104.75 225.92 105.27C225.831 105.317 225.755 105.386 225.7 105.47C225.644 105.554 225.609 105.65 225.6 105.75C225.575 105.916 225.592 106.085 225.65 106.242C225.708 106.399 225.804 106.54 225.93 106.65C226.483 107.021 227.147 107.191 227.81 107.13C228.629 107.118 229.446 107.031 230.25 106.87ZM226.43 105.5C227.556 105.682 228.642 106.057 229.64 106.61C227.92 106.88 226.64 106.8 226.18 106.37C226.096 106.301 226.033 106.21 225.996 106.108C225.959 106.007 225.95 105.897 225.97 105.79C225.971 105.749 225.983 105.709 226.004 105.674C226.025 105.639 226.054 105.61 226.09 105.59C226.196 105.541 226.313 105.52 226.43 105.53V105.5Z" fill="#407BFF"/>
<path d="M230.34 106.83C230.369 106.816 230.392 106.792 230.406 106.763C230.421 106.735 230.425 106.702 230.42 106.67C230.42 106.58 230.25 104.49 229.27 103.67C229.134 103.551 228.975 103.461 228.803 103.406C228.631 103.351 228.45 103.332 228.27 103.35C227.76 103.4 227.58 103.65 227.58 103.86C227.43 104.74 229.25 106.42 230.17 106.86H230.25C230.282 106.858 230.313 106.848 230.34 106.83ZM228.34 103.7C228.582 103.698 228.816 103.783 229 103.94C229.58 104.609 229.931 105.447 230 106.33C229.07 105.75 227.83 104.44 227.92 103.9C227.92 103.9 227.92 103.73 228.29 103.7H228.37H228.34Z" fill="#407BFF"/>
<path d="M229.46 106.24C227.46 107.95 225.01 109.72 218.93 111.02C217.57 111.29 217.69 114.7 220.93 114.71C224.17 114.72 229.48 114.45 231.84 114.45C235.67 114.45 236.74 114.54 239.77 114.61H239.91C240.073 114.594 240.231 114.546 240.376 114.468C240.52 114.39 240.648 114.284 240.751 114.157C240.854 114.029 240.931 113.883 240.977 113.725C241.023 113.568 241.038 113.403 241.02 113.24L240.02 106.35C239.994 106.2 239.915 106.064 239.798 105.967C239.68 105.87 239.532 105.818 239.38 105.82H230.67C230.231 105.824 229.806 105.971 229.46 106.24Z" fill="#263238"/>
<path opacity="0.2" d="M245.69 97.2401L240.68 104.68L234.15 101.31L239.17 93.8801L245.69 97.2401Z" fill="black"/>
<path d="M304.74 97.8901C305.84 107.67 301.69 118.3 280.74 117.83C262.93 117.43 262.59 97.1701 256.67 87.2101C253.5 96.7701 242.82 102.21 242.82 102.21L236 97.2701C236 97.2701 239.21 93.66 250.6 72.83C260.94 53.89 278.74 85.3301 281.79 95.5201L304.74 97.8901Z" fill="#EA4335"/>
<g opacity="0.2">
<path d="M304.74 97.8901C305.84 107.67 301.69 118.3 280.74 117.83C262.93 117.43 262.59 97.1701 256.67 87.2101C253.5 96.7701 242.82 102.21 242.82 102.21L236 97.2701C236 97.2701 239.21 93.66 250.6 72.83C260.94 53.89 278.74 85.3301 281.79 95.5201L304.74 97.8901Z" fill="#EA4335"/>
</g>
<path d="M246.41 100.94L235.21 94.73L234.06 98.29L243.85 104.16L246.41 100.94Z" fill="#263238"/>
<path d="M294.39 38.2601C294.8 42.0601 294.64 44.2601 289.18 44.7401C289.18 44.7401 281.55 51.61 287.23 64.8C293.467 59.4624 299.068 53.4224 303.92 46.8C301.05 43.17 302.92 36.4 304.53 31.8L294.39 38.2601Z" fill="#FF8B7B"/>
<path d="M285.41 46.13C286.488 44.7219 288.048 43.7607 289.79 43.43C292.79 42.82 303.79 44.22 304.79 45.16C305.802 46.0497 306.486 47.2544 306.73 48.58L285.41 46.13Z" fill="#EA4335"/>
<path d="M317.21 58.8101C317.87 61.0401 318.4 63.1801 318.9 65.3701C319.4 67.5601 319.84 69.7501 320.25 71.9501C320.66 74.1501 320.96 76.3901 321.25 78.6201C321.54 80.8501 321.75 83.1201 321.9 85.4001V86.1401L320.96 92.7901L319.96 99.4501C319.62 101.67 319.3 103.9 318.91 106.12C318.52 108.34 318.16 110.56 317.73 112.78L313.66 112.44C313.66 110.2 313.66 107.9 313.66 105.66C313.66 103.42 313.73 101.12 313.81 98.8901C313.89 96.6601 313.97 94.3601 314.09 92.1201C314.21 89.8801 314.33 87.6101 314.5 85.3401V86.0901C314.22 84.0001 313.9 81.9001 313.5 79.8101C313.1 77.7201 312.7 75.6201 312.24 73.5301C311.78 71.4401 311.29 69.3401 310.81 67.2601C310.33 65.1801 309.81 63.0601 309.28 61.0601L317.21 58.8101Z" fill="#FF8B7B"/>
<path d="M319.32 114.37L327.6 115.69L327.33 114.5C327.173 113.964 326.91 113.466 326.556 113.035C326.202 112.603 325.765 112.248 325.27 111.99L323.64 111.05C322.78 110.57 321.815 110.309 320.83 110.29L316.4 110.21L313.93 110.57C311.12 114.07 319.32 114.37 319.32 114.37Z" fill="#FF8B7B"/>
<path d="M305.14 56.3001C303.57 60.4101 308.61 69.7201 308.61 69.7201L320.61 63.1001C320.61 63.1001 317.29 51.1001 314.12 49.6501C310.48 48.0001 306.73 52.0001 305.14 56.3001Z" fill="#263238"/>
<path opacity="0.1" d="M305.14 56.3001C303.57 60.4101 308.61 69.7201 308.61 69.7201L320.61 63.1001C320.61 63.1001 317.29 51.1001 314.12 49.6501C310.48 48.0001 306.73 52.0001 305.14 56.3001Z" fill="white"/>
<path opacity="0.2" d="M305.4 61.83C306.198 64.5482 307.27 67.1784 308.6 69.68L314.52 66.44C314.091 65.3602 313.569 64.3196 312.96 63.33C310.73 60.07 307.8 60.38 305.4 61.83Z" fill="black"/>
<path d="M289.17 44.7701C294.122 45.1029 299.045 45.788 303.9 46.8201C306.938 47.4101 309.942 48.1611 312.9 49.0701L313.17 49.1601C314.276 49.5795 315.17 50.4202 315.658 51.4979C316.145 52.5757 316.185 53.8027 315.77 54.9101C307.21 77.7001 306.15 85.6501 304.92 98.1601L272.51 93.6201C272.39 88.3301 275.08 83.1601 275.08 75.2601C275.08 55.0801 271.64 55.2601 272.51 51.4201C272.42 45.9301 285.18 44.5701 289.17 44.7701Z" fill="#263238"/>
<path d="M290.08 18.5701C289.68 18.4401 289.19 18.8301 288.99 19.4501C288.79 20.0701 288.99 20.6801 289.38 20.8101C289.77 20.9401 290.27 20.5701 290.47 19.9201C290.67 19.2701 290.49 18.7001 290.08 18.5701Z" fill="#263238"/>
<path d="M288.9 17.76L290.25 18.66C289.3 19.16 288.9 17.76 288.9 17.76Z" fill="#263238"/>
<path d="M288.45 25.7401C288.043 25.7143 287.646 25.6008 287.287 25.4075C286.928 25.2142 286.615 24.9456 286.37 24.6201C287.669 23.707 288.833 22.6164 289.83 21.3801L288.45 25.7401Z" fill="#A02724"/>
<path d="M290.91 14.9401C291.367 15.0698 291.786 15.306 292.134 15.6294C292.481 15.9527 292.747 16.3539 292.91 16.8001C292.904 16.8231 292.904 16.8472 292.91 16.8701C292.926 16.9183 292.952 16.9626 292.986 17.0005C293.021 17.0384 293.062 17.0691 293.108 17.0907C293.154 17.1123 293.204 17.1244 293.255 17.1263C293.306 17.1282 293.357 17.1199 293.404 17.1018C293.452 17.0837 293.495 17.0562 293.532 17.0209C293.569 16.9857 293.598 16.9434 293.618 16.8966C293.638 16.8498 293.649 16.7995 293.649 16.7485C293.649 16.6976 293.639 16.6471 293.62 16.6001C293.42 16.0257 293.085 15.5076 292.643 15.0899C292.201 14.6722 291.665 14.367 291.08 14.2002C290.982 14.1746 290.878 14.1873 290.789 14.2355C290.699 14.2838 290.632 14.3641 290.6 14.4601C290.584 14.5245 290.584 14.5918 290.599 14.6562C290.615 14.7207 290.646 14.7803 290.69 14.8301C290.747 14.893 290.825 14.9322 290.91 14.9401Z" fill="#263238"/>
<path d="M312.24 24.36C309.35 31.82 308.3 35.0401 303.24 37.7301C301.921 38.4572 300.47 38.9123 298.972 39.0686C297.474 39.2249 295.96 39.0792 294.52 38.6401C293.102 38.1987 291.801 37.4471 290.71 36.4401C289.619 35.4312 288.775 34.185 288.243 32.7978C287.71 31.4107 287.504 29.9196 287.64 28.4401C288.17 21.0701 292.79 10.1101 301.2 9.44006C303.055 9.28148 304.919 9.60008 306.616 10.3656C308.313 11.1311 309.785 12.318 310.894 13.8134C312.002 15.3088 312.71 17.0629 312.949 18.909C313.188 20.755 312.951 22.6316 312.26 24.36H312.24Z" fill="#FF8B7B"/>
<path d="M300.11 38.0001C300.444 38.4326 300.917 38.7366 301.449 38.8605C301.981 38.9844 302.539 38.9206 303.03 38.68C306.57 36.95 314.54 32.5001 316.87 26.5401C319.87 18.8001 317.87 12.94 312.33 9.99004C306.79 7.04004 297.33 6.32004 293.4 9.99004C289.47 13.66 292.26 15.17 295.94 23.55C293.59 28.46 297.89 35.0901 300.11 38.0001Z" fill="#263238"/>
<path d="M296.61 20.79C294.61 20.72 293.22 23.18 292.9 24.9C292.54 26.81 293.7 28.47 295.61 27.72C297.047 27.1436 298.197 26.0219 298.81 24.6C299.009 24.2106 299.108 23.7775 299.096 23.3402C299.085 22.9029 298.965 22.4754 298.746 22.0966C298.527 21.7177 298.217 21.3997 297.844 21.1715C297.471 20.9433 297.047 20.8121 296.61 20.79Z" fill="#FF8B7B"/>
<path d="M222.58 95.54L215.48 91.28L203.95 105.56L209.82 111.35L222.58 95.54Z" fill="#FF8B7B"/>
<path d="M204.72 104.35C204.757 104.365 204.797 104.367 204.835 104.356C204.873 104.345 204.906 104.322 204.93 104.29C204.953 104.26 204.966 104.223 204.966 104.185C204.966 104.147 204.953 104.11 204.93 104.08C204.74 103.72 203.01 100.55 201.93 100.44C201.824 100.434 201.719 100.452 201.621 100.494C201.524 100.536 201.438 100.599 201.37 100.68C201.245 100.811 201.157 100.972 201.117 101.148C201.076 101.325 201.084 101.508 201.14 101.68C201.4 102.319 201.869 102.851 202.47 103.19C203.186 103.639 203.939 104.027 204.72 104.35ZM204.32 103.78C202.68 103.02 201.62 102.22 201.47 101.57C201.433 101.458 201.428 101.337 201.456 101.222C201.485 101.107 201.545 101.003 201.63 100.92C201.655 100.887 201.689 100.86 201.727 100.845C201.766 100.829 201.808 100.824 201.85 100.83C201.971 100.843 202.086 100.892 202.18 100.97C203.049 101.777 203.773 102.727 204.32 103.78Z" fill="#407BFF"/>
<path d="M204.78 104.35C204.814 104.349 204.848 104.339 204.877 104.321C204.907 104.304 204.932 104.279 204.95 104.25C204.95 104.18 206.05 102.31 205.69 101.01C205.64 100.827 205.553 100.656 205.435 100.508C205.316 100.36 205.168 100.238 205 100.15C204.53 99.89 204.26 100.03 204.1 100.15C203.47 100.82 204.1 103.33 204.62 104.23V104.29C204.664 104.33 204.721 104.351 204.78 104.35ZM204.92 100.54C205.119 100.678 205.261 100.885 205.32 101.12C205.419 102.035 205.23 102.958 204.78 103.76C204.3 102.71 204 100.86 204.38 100.45C204.38 100.45 204.51 100.31 204.82 100.45L204.92 100.51V100.54Z" fill="#407BFF"/>
<path d="M203.72 103.31C200.93 103.6 197.84 103.76 191.85 101.31C190.52 100.78 188.64 103.78 191.44 105.68C194.24 107.58 198.99 110.41 201.02 111.79C204.31 114.03 205.19 114.71 207.78 116.53L207.9 116.6C208.049 116.681 208.214 116.731 208.383 116.748C208.552 116.765 208.722 116.748 208.885 116.699C209.048 116.649 209.199 116.569 209.33 116.461C209.461 116.353 209.57 116.22 209.65 116.07L212.83 109.59C212.897 109.449 212.91 109.288 212.868 109.137C212.826 108.987 212.73 108.856 212.6 108.77L205.11 103.68C204.702 103.402 204.212 103.271 203.72 103.31Z" fill="#263238"/>
<path opacity="0.2" d="M203.72 103.31C200.93 103.6 197.84 103.76 191.85 101.31C190.52 100.78 188.64 103.78 191.44 105.68C194.24 107.58 198.99 110.41 201.02 111.79C204.31 114.03 205.19 114.71 207.78 116.53L207.9 116.6C208.049 116.681 208.214 116.731 208.383 116.748C208.552 116.765 208.722 116.748 208.885 116.699C209.048 116.649 209.199 116.569 209.33 116.461C209.461 116.353 209.57 116.22 209.65 116.07L212.83 109.59C212.897 109.449 212.91 109.288 212.868 109.137C212.826 108.987 212.73 108.856 212.6 108.77L205.11 103.68C204.702 103.402 204.212 103.271 203.72 103.31Z" fill="black"/>
<path opacity="0.2" d="M222.58 95.54L216.31 103.31L209.2 99.06L215.48 91.28L222.58 95.54Z" fill="black"/>
<path d="M305 97.7401C307.2 107.74 304.57 122.74 279.58 118.67C257.15 115.05 247.51 90.7301 238.78 80.1901C235.15 89.6601 219.6 100.42 219.6 100.42L210 94.9101C210 94.9101 217.61 86.7901 228.57 68.4901C240.08 49.3001 267.67 83.0601 272.57 93.6201L305 97.7401Z" fill="#EA4335"/>
<path d="M222.75 99.17L210.48 91.76L209.04 95.69L219.75 102.69L222.75 99.17Z" fill="#263238"/>
<path d="M305.17 96.0002L272.33 91.4102C272.01 91.4102 271.73 91.5001 271.73 91.7101L271.61 94.7101C271.61 94.9001 271.82 95.0701 272.11 95.1201L305.49 99.7802C305.86 99.8302 306.17 99.6402 306.08 99.3902L305.67 96.3902C305.631 96.285 305.564 96.1926 305.476 96.1237C305.387 96.0548 305.281 96.012 305.17 96.0002Z" fill="white"/>
<path d="M300.33 99.1101L300.44 95.2801C300.44 95.1701 300.59 95.1101 300.77 95.1101L301.65 95.2401C301.82 95.2401 301.96 95.3701 301.96 95.4901L301.84 99.3201C301.84 99.4301 301.69 99.4801 301.52 99.4801L300.64 99.3501C300.568 99.3562 300.496 99.3349 300.438 99.2904C300.381 99.246 300.342 99.1816 300.33 99.1101Z" fill="#263238"/>
<path d="M274.24 95.46L274.36 91.64C274.36 91.52 274.51 91.48 274.68 91.48L275.56 91.6C275.74 91.6 275.87 91.74 275.87 91.85L275.76 95.68C275.76 95.79 275.61 95.83 275.43 95.83L274.55 95.72C274.38 95.69 274.24 95.58 274.24 95.46Z" fill="#263238"/>
<path d="M287.23 97.28L287.35 93.46C287.35 93.34 287.5 93.29 287.67 93.29L288.55 93.42C288.72 93.42 288.86 93.55 288.86 93.66L288.75 97.49C288.75 97.6 288.6 97.65 288.42 97.65L287.54 97.53C287.37 97.51 287.23 97.41 287.23 97.28Z" fill="#263238"/>
<path d="M327.65 17.35C328.65 20.89 328.05 24.62 327.89 28.28C327.567 32.125 328.139 35.9926 329.56 39.58C331.11 43.1 334.1 46.14 337.85 46.99C341.6 47.84 345.99 46.06 347.47 42.51C347.091 43.7066 346.443 44.8006 345.577 45.7088C344.71 46.6169 343.647 47.3151 342.47 47.75C340.12 48.6 336.03 49.4 333.93 48.03C334.99 50.88 340.68 52.03 344.34 51.61C341.1 54.1 336.45 58.37 329.56 54.49C327.791 53.4531 326.359 51.928 325.435 50.0976C324.51 48.2671 324.134 46.209 324.35 44.17C323.311 46.3741 323.033 48.8609 323.56 51.24C321.289 49.7767 319.483 47.697 318.351 45.2442C317.219 42.7915 316.81 40.0671 317.17 37.39C317.56 34.8 318.67 32.39 319.44 29.88C320.21 27.37 320.66 24.62 319.71 22.17C319.047 20.7104 318.163 19.3613 317.09 18.17C316.026 16.9853 315.213 15.5974 314.7 14.09C314.455 13.3308 314.423 12.5188 314.608 11.7427C314.793 10.9667 315.188 10.2566 315.75 9.68998C317.63 8.05998 320.51 10.21 322.36 10.97C323.672 11.5572 324.831 12.4378 325.748 13.544C326.665 14.6502 327.316 15.9524 327.65 17.35Z" fill="#263238"/>
<path d="M285.13 58.75C285.79 60.97 287.13 70.37 287.53 72.57C287.93 74.77 288.24 77 288.53 79.24C288.82 81.48 289.03 83.74 289.18 86.01V86.76L288.24 93.4L287.24 100.07C286.9 102.29 286.71 102.21 286.32 104.42C285.93 106.63 285.53 109.03 285.1 111.25L279.42 112.12C279.42 109.88 279.88 106.2 279.91 103.96C279.94 101.72 279.84 101.73 279.91 99.5C279.98 97.27 280.07 94.98 280.19 92.74C280.31 90.5 280.43 88.22 280.61 85.96V86.7C280.32 84.61 280.01 82.52 279.61 80.43C279.21 78.34 278.81 76.23 278.35 74.14C277.89 72.05 277.4 69.96 276.93 67.88C276.46 65.8 275.93 63.68 275.4 61.67L285.13 58.75Z" fill="#FF8B7B"/>
<path d="M279.45 111.52L278.16 117.24C278.259 117.731 278.518 118.174 278.896 118.502C279.274 118.83 279.75 119.022 280.25 119.05H289.19C291.19 119.16 293.47 117.43 289.72 114.37L285.13 110.65C285.13 110.65 283.17 108.68 279.45 111.52Z" fill="#FF8B7B"/>
<path d="M276.07 46.87C271.26 49.21 270.4 58.87 273.21 63.87C282.92 61.13 286.7 62.98 286.61 63.25C286.905 60.9043 286.844 58.5275 286.43 56.2C286.14 53.2543 284.789 50.5144 282.63 48.49C280.4 46.62 278.63 45.45 276.07 46.87Z" fill="#263238"/>
<path opacity="0.1" d="M276.07 46.87C271.26 49.21 270.4 58.87 273.21 63.87C282.92 61.13 286.7 62.98 286.61 63.25C286.905 60.9043 286.844 58.5275 286.43 56.2C286.14 53.2543 284.789 50.5144 282.63 48.49C280.4 46.62 278.63 45.45 276.07 46.87Z" fill="white"/>
<path opacity="0.2" d="M294.5 38.6401C293.082 38.1987 291.781 37.4472 290.69 36.4401C290.69 36.4401 290.69 36.4401 290.69 36.3801C291.517 36.7995 292.457 36.9398 293.37 36.7801C293.618 36.6846 293.892 36.6846 294.14 36.7801C294.242 36.8797 294.321 36.9999 294.373 37.1327C294.425 37.2655 294.448 37.4078 294.44 37.5501C294.45 37.9301 294.47 38.2901 294.5 38.6401Z" fill="black"/>
<path d="M98.78 105.01L93.55 99.8201L109.01 87.6001L114.62 93.3301L98.78 105.01Z" fill="#CB7A63"/>
<path d="M88.8 98.08C88.7669 98.2453 88.7761 98.4164 88.8268 98.5773C88.8775 98.7381 88.968 98.8835 89.09 99C89.2844 99.1344 89.4922 99.2483 89.71 99.34H89.77C90.1511 99.4919 90.5603 99.5602 90.97 99.54C91.8041 99.5517 92.6375 99.4881 93.46 99.35C93.5086 99.3392 93.5514 99.3106 93.58 99.27C93.5857 99.2436 93.5857 99.2164 93.58 99.19C93.5809 99.1539 93.5708 99.1184 93.5512 99.0881C93.5316 99.0577 93.5033 99.034 93.47 99.02L92.86 98.68L92.15 98.32C91.8 98.16 91.43 98 91.05 97.86C90.4376 97.5326 89.7288 97.4334 89.05 97.58C88.9715 97.6374 88.9079 97.7127 88.8644 97.7997C88.8209 97.8866 88.7988 97.9827 88.8 98.08ZM89.3 97.93C89.4083 97.8882 89.5244 97.8712 89.64 97.88C90.0319 97.9588 90.4191 98.059 90.8 98.18C91.4994 98.4142 92.1703 98.7262 92.8 99.11H92.42C91.915 99.1594 91.4072 99.1762 90.9 99.16C90.5622 99.1549 90.2263 99.1079 89.9 99.02C89.6704 98.9654 89.4576 98.8555 89.28 98.7C89.1951 98.6258 89.1323 98.5296 89.0988 98.4219C89.0653 98.3142 89.0622 98.1993 89.09 98.09C89.1056 98.0457 89.1337 98.0069 89.1711 97.9785C89.2084 97.9501 89.2532 97.9332 89.3 97.93Z" fill="#407BFF"/>
<path d="M91.16 95.11C90.9 95.56 91.16 96.5001 91.59 97.3401C91.7515 97.6929 91.9492 98.028 92.1799 98.3401C92.2961 98.5109 92.4265 98.6714 92.57 98.8201C92.57 98.8201 92.57 98.8701 92.64 98.8701C92.6573 98.8775 92.6761 98.8813 92.695 98.8813C92.7139 98.8813 92.7326 98.8775 92.75 98.8701C92.7809 98.8612 92.809 98.8446 92.8317 98.8218C92.8545 98.7991 92.8711 98.7709 92.88 98.74C93.1618 97.811 93.1895 96.8234 92.96 95.8801C92.9314 95.768 92.8877 95.6603 92.83 95.5601C92.7411 95.3976 92.6198 95.2552 92.4736 95.1417C92.3273 95.0281 92.1593 94.9459 91.98 94.9C91.49 94.73 91.26 94.92 91.16 95.11ZM91.8999 95.2201H92.0099C92.2248 95.31 92.404 95.4681 92.52 95.6701C92.597 95.8106 92.651 95.9625 92.6799 96.1201C92.8013 96.8375 92.7775 97.572 92.61 98.2801C92.3124 97.8883 92.0577 97.4659 91.85 97.02C91.52 96.29 91.31 95.5501 91.48 95.2601C91.5 95.2501 91.5699 95.1301 91.8999 95.2201Z" fill="#407BFF"/>
<path d="M94.31 99.55L101.09 103.77C101.22 103.847 101.317 103.969 101.365 104.112C101.412 104.255 101.407 104.41 101.35 104.55L98.66 111C98.592 111.15 98.4951 111.285 98.3748 111.397C98.2544 111.51 98.1131 111.597 97.9588 111.655C97.8046 111.713 97.6405 111.739 97.4759 111.733C97.3114 111.727 97.1496 111.689 97 111.62L96.88 111.55C85.11 106.18 81.66 102.83 80.45 102.02C77.01 99.72 79.27 97.34 80.6 97.78C86.53 99.78 88.6 99.59 91.28 99.15C92.3075 99.0301 93.3488 99.1676 94.31 99.55Z" fill="#263238"/>
<path opacity="0.2" d="M109.01 87.6001L101.22 93.3401L106.83 99.0801L114.62 93.3401L109.01 87.6001Z" fill="black"/>
<path d="M110.21 99.3301L101.9 90.1501L104.21 86.8301L113.88 96.7801L110.21 99.3301Z" fill="#407BFF"/>
<path opacity="0.5" d="M110.21 99.3301L101.9 90.1501L104.21 86.8301L113.88 96.7801L110.21 99.3301Z" fill="#FBBC04"/>
<path d="M105.53 88.1901L106.65 89.3401L108.32 91.0601L109.32 92.0601L112.24 95.0601L112.8 95.6301C112.8 95.6301 126.38 89.5201 134.12 83.9601C139.43 80.1401 140.02 78.6001 140.5 79.0401C146.97 84.9501 165.88 105.04 176.67 115.63L177.8 115.84C183.98 116.84 188.94 116.61 192.87 115.51C193.37 110.46 190.11 98.2701 189.87 97.1001C189.87 97.1001 174.23 78.4601 147.68 61.4901C147.42 61.3301 147.14 61.1901 146.87 61.0401C146.6 60.8901 146.18 60.6701 145.87 60.5101C144.558 59.8393 143.147 59.3835 141.69 59.1601C140.46 58.9944 139.209 59.076 138.01 59.4001C137.328 59.5736 136.659 59.7976 136.01 60.0701C135.429 60.3062 134.862 60.5733 134.31 60.8701C133.39 61.3401 132.51 61.8701 131.66 62.4001C129.76 63.6101 114.74 79.7301 106.79 87.0801L105.53 88.1901Z" fill="#263238"/>
<g opacity="0.2">
<path d="M105.53 88.1901L106.65 89.3401L108.32 91.0601L109.32 92.0601L112.24 95.0601L112.8 95.6301C112.8 95.6301 126.38 89.5201 134.12 83.9601C139.43 80.1401 140.02 78.6001 140.5 79.0401C146.97 84.9501 165.88 105.04 176.67 115.63L177.8 115.84C183.98 116.84 188.94 116.61 192.87 115.51C193.37 110.46 190.11 98.2701 189.87 97.1001C189.87 97.1001 174.23 78.4601 147.68 61.4901C147.42 61.3301 147.14 61.1901 146.87 61.0401C146.6 60.8901 146.18 60.6701 145.87 60.5101C144.558 59.8393 143.147 59.3835 141.69 59.1601C140.46 58.9944 139.209 59.076 138.01 59.4001C137.328 59.5736 136.659 59.7976 136.01 60.0701C135.429 60.3062 134.862 60.5733 134.31 60.8701C133.39 61.3401 132.51 61.8701 131.66 62.4001C129.76 63.6101 114.74 79.7301 106.79 87.0801L105.53 88.1901Z" fill="black"/>
</g>
<path d="M207.8 27.22C204.89 31.38 201.06 37.61 202.89 42.05C196.147 47.2914 188.818 51.7312 181.05 55.28C179.14 40.46 188.74 35.78 188.74 35.78C194.36 36.78 195.14 34.71 195.82 30.78L207.8 27.22Z" fill="#CB7A63"/>
<path d="M207 40.08C206.711 38.7062 205.968 37.4698 204.89 36.57C203.89 35.62 192.34 34.45 189.25 35.16C187.447 35.5597 185.852 36.601 184.76 38.09L207 40.08Z" fill="#407BFF"/>
<path d="M154.44 60.18L151.28 59.27L151.86 64.13C152.82 64.742 153.884 65.1725 155 65.4C155.349 65.4493 155.704 65.4057 156.031 65.2735C156.357 65.1413 156.643 64.9252 156.859 64.6472C157.075 64.3691 157.214 64.039 157.262 63.6901C157.309 63.3411 157.264 62.9858 157.13 62.66C156.893 62.0732 156.529 61.5462 156.064 61.1173C155.599 60.6884 155.044 60.3683 154.44 60.18Z" fill="#CB7A63"/>
<path d="M147.7 61.2L148.12 62.95C148.177 63.2172 148.319 63.4587 148.524 63.6389C148.73 63.819 148.988 63.9281 149.26 63.95L151.88 64.14L151.3 59.29L148.74 59.71C148.577 59.7308 148.42 59.7841 148.277 59.8667C148.135 59.9493 148.011 60.0596 147.912 60.1911C147.813 60.3225 147.742 60.4725 147.702 60.632C147.662 60.7916 147.655 60.9575 147.68 61.12C147.684 61.1474 147.69 61.1742 147.7 61.2Z" fill="#CB7A63"/>
<path d="M194.09 68.2999C189.751 71.4147 184.551 73.1027 179.21 73.1299C172.74 73.0099 160.81 68.3299 155.49 65.4099L156.74 62.7699C159.2 62.9199 180.15 69.9099 191.39 59.0799C193.48 57.0799 201.66 48.82 204.94 48.48C210.25 47.93 210.62 53.4799 208.7 56.1599C206.44 59.2499 197.46 65.9999 194.09 68.2999Z" fill="#CB7A63"/>
<g opacity="0.2">
<path d="M148.12 62.9999C148.176 63.2678 148.317 63.5102 148.523 63.6906C148.728 63.871 148.987 63.9796 149.26 63.9999L151.86 64.1899C152.824 64.7809 153.889 65.1909 155 65.3999C155.159 65.4198 155.321 65.4198 155.48 65.3999C160.81 68.3199 172.73 72.9999 179.2 73.1299C184.542 73.0992 189.742 71.4077 194.08 68.2899C197.45 65.9499 206.44 59.2399 208.69 56.1499C210.61 53.5099 210.24 47.9199 204.93 48.4699C201.66 48.8099 193.48 57.0499 191.38 59.0699C180.65 69.3899 161.11 63.5199 157.18 62.8199C157.169 62.7605 157.149 62.7031 157.12 62.6499C156.885 62.0643 156.523 61.5382 156.06 61.1099C155.592 60.6817 155.035 60.3609 154.43 60.17L151.3 59.2699L148.75 59.6899C148.433 59.7486 148.151 59.9287 147.964 60.192C147.777 60.4552 147.7 60.781 147.75 61.0999C147.75 61.0999 147.75 61.17 147.75 61.2L148.12 62.9999Z" fill="black"/>
<path d="M151.28 59.27L151.31 59.28V59.27H151.28Z" fill="black"/>
</g>
<path d="M174.34 45.15C166.28 59.36 181.49 65.01 172.15 88.66L206 92.53C206.95 79.53 202.07 81.87 210.39 57.94C211.823 53.5686 211.955 48.8751 210.77 44.43C210.108 42.2373 208.714 40.3381 206.82 39.05C204.44 37.47 193.32 37.5301 188.26 37.4201C182.85 36.1501 175.5 43.39 174.34 45.15Z" fill="#FBBC04"/>
<path d="M190.5 14.27C190.34 14.91 189.89 15.2701 189.5 15.1901C189.11 15.1101 188.9 14.52 189.05 13.9C189.2 13.28 189.66 12.9001 190.05 12.9801C190.44 13.0601 190.65 13.66 190.5 14.27Z" fill="#263238"/>
<path d="M190.22 13.06L188.86 12.26C188.86 12.26 189.32 13.6 190.22 13.06Z" fill="#263238"/>
<path d="M190.07 15C189.17 16.2559 188.1 17.38 186.89 18.34C187.143 18.6479 187.46 18.897 187.819 19.0697C188.179 19.2424 188.571 19.3346 188.97 19.34L190.07 15Z" fill="#A02724"/>
<path d="M190.1 9.37005C190.051 9.32339 190.016 9.26423 189.998 9.199C189.981 9.13378 189.981 9.06498 190 9.00006C190.03 8.90635 190.094 8.827 190.178 8.77719C190.263 8.72738 190.364 8.71061 190.46 8.73007C191.034 8.86115 191.569 9.12731 192.019 9.50647C192.469 9.88563 192.823 10.3668 193.05 10.9101C193.089 11.0007 193.092 11.1027 193.058 11.1955C193.025 11.2882 192.958 11.3649 192.87 11.4101C192.778 11.4481 192.675 11.4496 192.582 11.4143C192.489 11.379 192.413 11.3095 192.37 11.2201C192.369 11.1967 192.369 11.1734 192.37 11.1501C192.179 10.7276 191.893 10.3551 191.534 10.0619C191.174 9.76863 190.752 9.56263 190.3 9.46005C190.225 9.45455 190.154 9.42268 190.1 9.37005Z" fill="#263238"/>
<path d="M211.49 17.4201C209.11 24.8301 208.26 28.0101 203.49 30.9001C196.29 35.2601 187.7 30.7201 187.84 22.7501C187.95 15.5801 191.84 4.6701 199.94 3.5601C201.319 3.36223 202.724 3.43814 204.073 3.78346C205.423 4.12879 206.691 4.73677 207.806 5.57265C208.92 6.40852 209.859 7.45586 210.568 8.65483C211.278 9.8538 211.744 11.1809 211.94 12.5601C212.179 14.1928 212.025 15.859 211.49 17.4201Z" fill="#CB7A63"/>
<path d="M187.84 22.2499C188.584 22.0154 189.249 21.5793 189.76 20.9899C189.788 20.9602 189.804 20.9208 189.804 20.8799C189.804 20.839 189.788 20.7996 189.76 20.7699C189.729 20.7438 189.69 20.7295 189.65 20.7295C189.61 20.7295 189.571 20.7438 189.54 20.7699C189.088 21.2678 188.522 21.6487 187.89 21.8799L187.84 22.2499Z" fill="#263238"/>
<path d="M194.51 7.39996C194.101 9.9183 194.399 12.5007 195.37 14.86C196.98 18.42 196.68 25.02 194.29 28.07C192.35 30.53 189.02 31.38 186.76 33.57C184.5 35.76 183.17 38.92 184.53 42.07C185.74 44.86 191.15 44.24 192.67 46.84C194.74 50.35 193.76 57.23 198.53 57.29C205.31 57.41 206.93 51.41 211.63 52.49C216.33 53.57 223.49 55.34 225.36 48.09C226.52 43.63 223.36 40.48 222.95 36.28C222.62 33.28 224.66 30.93 225.1 28.08C225.332 26.6078 225.269 25.1041 224.913 23.6567C224.558 22.2093 223.918 20.8472 223.03 19.65C221.74 17.89 220.03 16.65 219.36 14.44C218.81 12.72 218.46 10.94 217.94 9.20996C217.489 7.37449 216.539 5.69993 215.194 4.37237C213.848 3.04482 212.161 2.11628 210.32 1.68997C199.1 -0.830031 195.6 2.89996 194.51 7.39996Z" fill="#263238"/>
<path d="M189.64 4.65992C189.298 5.38058 189.236 6.20278 189.467 6.96629C189.699 7.7298 190.206 8.37991 190.89 8.78993C190.876 9.52785 191.017 10.2605 191.305 10.9402C191.593 11.6199 192.02 12.2314 192.56 12.7351C193.099 13.2387 193.738 13.6232 194.436 13.8635C195.134 14.1038 195.875 14.1946 196.61 14.1299C195.3 13.4699 195.28 11.5199 196.04 10.2599C197.43 7.94993 201.65 5.59993 198.58 2.84993C196.24 0.749927 190.93 1.88992 189.64 4.65992Z" fill="#263238"/>
<path d="M200.18 18.4398C199.57 20.1282 198.315 21.5056 196.69 22.2698C194.52 23.2698 193.07 21.4198 193.36 19.1798C193.61 17.1798 195.06 14.2298 197.36 14.1798C197.872 14.1631 198.38 14.2776 198.835 14.5126C199.29 14.7476 199.677 15.0952 199.96 15.5223C200.243 15.9493 200.411 16.4417 200.45 16.9524C200.488 17.4631 200.395 17.9752 200.18 18.4398Z" fill="#CB7A63"/>
<path d="M95.2001 108.28L89.6201 101.76L102.8 87.95L109.8 92.9799L95.2001 108.28Z" fill="#CB7A63"/>
<path d="M83.0799 99.7899C83.0157 99.953 82.9922 100.129 83.0114 100.303C83.0305 100.478 83.0918 100.645 83.1899 100.79C83.3144 100.929 83.4517 101.056 83.5999 101.17C84.0104 101.502 84.4994 101.722 85.0199 101.81L85.4999 101.91C86.219 102.051 86.9477 102.138 87.6799 102.17C87.7199 102.171 87.7595 102.161 87.7933 102.139C87.8272 102.118 87.8539 102.087 87.8699 102.05C87.8844 102.011 87.8843 101.968 87.8695 101.93C87.8548 101.891 87.8265 101.859 87.7899 101.84C87.7899 101.78 87.5699 101.64 87.3499 101.45L87.2499 101.36C87.0599 101.2 86.8299 101.01 86.5799 100.82C85.5799 100.05 84.2599 99.1699 83.5799 99.3399C83.4655 99.3669 83.3597 99.4223 83.2723 99.5009C83.1849 99.5796 83.1187 99.679 83.0799 99.7899ZM83.6299 99.7899C83.7541 99.7549 83.8857 99.7549 84.0099 99.7899C84.9684 100.2 85.8613 100.75 86.6599 101.42L86.8399 101.58L87.0899 101.8C86.7999 101.8 86.5299 101.74 86.2799 101.71C85.733 101.636 85.1941 101.512 84.6699 101.34C84.2223 101.228 83.8206 100.98 83.5199 100.63C83.4484 100.531 83.4042 100.416 83.3919 100.294C83.3796 100.173 83.3996 100.051 83.4499 99.9399C83.4613 99.8956 83.4839 99.8549 83.5153 99.8217C83.5468 99.7884 83.5863 99.7637 83.6299 99.7499V99.7899Z" fill="#FBBC04"/>
<path d="M86.24 97.21C85.7 97.8 86.08 99.69 86.57 100.84C86.6493 101.037 86.7428 101.227 86.85 101.41C86.8652 101.432 86.8859 101.449 86.91 101.46H87.03C87.0655 101.458 87.1 101.447 87.1299 101.428C87.1598 101.409 87.184 101.382 87.2 101.35C87.35 101.07 88.2 99.25 87.87 97.99C87.8121 97.8011 87.7167 97.6258 87.5896 97.4746C87.4624 97.3234 87.3061 97.1994 87.13 97.11C86.67 96.89 86.39 97 86.24 97.21ZM86.53 97.47C86.53 97.47 86.66 97.33 86.99 97.47L87.09 97.53C87.3063 97.6636 87.4636 97.8745 87.53 98.12C87.6514 99.0695 87.4768 100.033 87.03 100.88C86.5 99.83 86.14 97.91 86.53 97.47Z" fill="#FBBC04"/>
<path opacity="0.2" d="M103.5 87.1001L97.29 93.7301L104.45 98.6101L110.73 92.1701L103.5 87.1001Z" fill="black"/>
<path d="M206.51 90.0001L207.01 93.1501C207.11 93.4001 206.8 93.6101 206.41 93.5601L171.58 89.5601C171.27 89.5601 171.04 89.3401 171.04 89.1501L172.21 86.0001C172.21 85.7901 172.5 85.6401 172.83 85.6801L205.98 89.6801C206.089 89.6813 206.195 89.7116 206.289 89.7678C206.382 89.8241 206.458 89.9043 206.51 90.0001Z" fill="white"/>
<path d="M175.18 90.2501L176.09 90.4201C176.27 90.4201 176.42 90.4201 176.43 90.2901L176.81 86.2901C176.81 86.1701 176.68 86.0501 176.5 86.0101L175.59 85.8201C175.41 85.8201 175.25 85.8201 175.25 85.9701L174.87 89.9701C174.86 90.0801 175 90.2101 175.18 90.2501Z" fill="#FBBC04"/>
<path d="M187.66 91.5399L188.56 91.7199C188.74 91.7199 188.9 91.7199 188.91 91.5799L189.28 87.5799C189.28 87.4599 189.15 87.3399 188.97 87.2999L188.07 87.1099C187.89 87.1099 187.73 87.1099 187.72 87.2599L187.35 91.2599C187.33 91.3899 187.48 91.4999 187.66 91.5399Z" fill="#FBBC04"/>
<path d="M187.66 91.5399L188.56 91.7199C188.74 91.7199 188.9 91.7199 188.91 91.5799L189.28 87.5799C189.28 87.4599 189.15 87.3399 188.97 87.2999L188.07 87.1099C187.89 87.1099 187.73 87.1099 187.72 87.2599L187.35 91.2599C187.33 91.3899 187.48 91.4999 187.66 91.5399Z" fill="#FBBC04"/>
<path d="M98.54 89.8699L100.01 90.8699L102.53 92.6099L104.8 94.1599L107.12 95.7699L108.01 96.39L108.64 96.0099L109.17 95.6899C109.8 95.3099 110.66 94.7699 111.68 94.1099C116.95 90.6599 126.41 83.7999 129.68 77.1099C131.18 79.2699 132.98 81.98 135.04 84.98C143.91 97.89 157.85 116.24 176.26 120.13C176.63 120.22 177 120.29 177.38 120.36C183.55 121.45 188.51 121.28 192.45 120.22C202.45 117.56 205.88 109.32 205.87 102.04C206.11 98.6599 206 92.5799 206 92.5799L170.77 89.4399C164.348 80.3712 156.531 72.3757 147.61 65.7499C147.38 65.5699 147.15 65.4099 146.92 65.2599C146.69 65.1099 146.34 64.86 146.05 64.67C143.141 62.6484 139.981 61.0146 136.65 59.8099C135.97 59.5799 135.29 59.3699 134.65 59.2099C133.961 59.039 133.263 58.9055 132.56 58.8099C130.195 58.387 127.758 58.6653 125.549 59.6107C123.341 60.556 121.457 62.127 120.13 64.1299L99.19 89.1899L98.54 89.8699Z" fill="#263238"/>
<path opacity="0.2" d="M188.88 47.2C188.88 47.2 190.38 51.0999 184.2 60.4699L181.63 64.2899C180.78 65.5499 176.18 62.4099 174.96 59.7899C174.96 59.7899 184.73 55.07 188.88 47.2Z" fill="black"/>
<path d="M143.05 56.5499L139.46 55.1399L139.54 60.8799C139.54 60.8799 144.37 64.7799 146.44 61.6599L145.89 59.7599C145.684 59.0478 145.323 58.3903 144.831 57.8351C144.34 57.28 143.732 56.8409 143.05 56.5499Z" fill="#CB7A63"/>
<path d="M135 56.9999L135.28 59.0899C135.317 59.4067 135.456 59.7029 135.676 59.9338C135.896 60.1647 136.185 60.3178 136.5 60.3699L139.5 60.8899L139.42 55.1399L136.37 55.3499C136.177 55.3563 135.987 55.4008 135.811 55.4807C135.635 55.5606 135.477 55.6744 135.345 55.8156C135.213 55.9567 135.11 56.1225 135.043 56.3034C134.975 56.4843 134.943 56.6768 134.95 56.8699C134.972 56.9112 134.988 56.9548 135 56.9999Z" fill="#CB7A63"/>
<path d="M172.84 68.9999C169.96 72.2499 166.08 74.8399 161.76 75.2799C156.67 75.8099 147.68 67.8599 143.57 62.8699C143.98 60.9599 143.94 59.8699 145.89 59.8099C145.89 59.8099 150.53 63.8999 159.71 66.9299C162.71 67.9299 164.97 64.9999 168.02 60.7299C169.54 58.6099 176.53 45.3699 178.31 43.4699C181.19 40.3999 188.31 43.4699 184.69 51.0899C181.165 57.3302 177.205 63.315 172.84 68.9999Z" fill="#CB7A63"/>
<path d="M178 40.5999C172.36 44.9099 169.06 53.1399 169.06 53.1399L180.55 61.6599C180.55 61.6599 190.55 49.9799 189.38 45.4899C188.43 41.9999 186.31 39.5799 183.28 39.1099C182.345 38.9899 181.395 39.0601 180.488 39.3161C179.581 39.5721 178.734 40.0088 178 40.5999Z" fill="#FBBC04"/>
<path d="M201.35 93.2601L202.27 93.3601C202.45 93.3601 202.61 93.3101 202.6 93.1901V89.1901C202.581 89.1169 202.538 89.0519 202.478 89.0051C202.419 88.9582 202.346 88.9319 202.27 88.9301L201.35 88.8301C201.16 88.8301 201.01 88.8901 201.01 89.0001V93.0001C201.022 93.0788 201.065 93.1498 201.128 93.1982C201.191 93.2466 201.271 93.2688 201.35 93.2601Z" fill="#FBBC04"/>
<path d="M109.35 98.2199L98.04 91.2299L99.43 87.1099L112.38 94.4899L109.35 98.2199Z" fill="#407BFF"/>
<path opacity="0.5" d="M109.35 98.2199L98.04 91.2299L99.43 87.1099L112.38 94.4899L109.35 98.2199Z" fill="#FBBC04"/>
<path d="M90.16 101.15L98.1 104.37C98.2527 104.425 98.3805 104.533 98.4595 104.674C98.5386 104.816 98.5637 104.981 98.53 105.14L96.87 112.47C96.8302 112.645 96.7558 112.809 96.6512 112.955C96.5467 113.1 96.414 113.223 96.2611 113.316C96.1083 113.409 95.9382 113.471 95.7611 113.498C95.584 113.524 95.4034 113.515 95.23 113.47L95.09 113.42C81.64 109.92 77.36 107 75.94 106.37C71.87 104.57 73.83 101.63 75.31 101.86C81.96 102.86 84.11 102.29 86.87 101.33C87.9367 101.009 89.0646 100.947 90.16 101.15Z" fill="#263238"/>
</svg>
