<svg width="86" height="40" viewBox="0 0 86 40" fill="none" xmlns="http://www.w3.org/2000/svg">
<path d="M20.2547 19.7393L34.0653 12.1424C37.3329 10.3757 38.4427 6.37112 36.5314 3.24991C34.6818 0.128699 30.4893 -0.931335 27.2217 0.89428L3.42316 14.0269L20.2547 19.7393Z" fill="#E84336"/>
<path d="M30.6743 39.3499C33.0171 39.3499 35.2984 38.1721 36.5931 36.1109C38.4427 32.9897 37.3329 29.044 34.1269 27.2184L10.2051 14.0268C6.93745 12.2601 2.80662 13.3201 0.895337 16.3825C-0.954287 19.5037 0.155488 23.4494 3.3615 25.275L27.2217 38.4665C28.3314 39.0554 29.5029 39.3499 30.6743 39.3499Z" fill="#4282F2"/>
<path d="M54.4111 39.3499C55.5826 39.3499 56.754 39.0555 57.8021 38.4665L81.7239 25.275L65.0773 19.4448L51.0201 27.1595C47.7525 28.9262 46.6427 32.9308 48.554 36.052C49.7871 38.1721 52.0683 39.3499 54.4111 39.3499Z" fill="#F9BA08"/>
<path d="M78.3329 26.1584C80.6758 26.1584 82.957 24.9806 84.2517 22.9194C86.1013 19.7982 84.9916 15.8525 81.7856 14.0269L57.8637 0.894271C54.5961 -0.872453 50.4652 0.187582 48.554 3.2499C46.7043 6.37112 47.8141 10.3168 51.0201 12.1424L74.9419 25.2751C75.9901 25.864 77.1615 26.1584 78.3329 26.1584Z" fill="#00A150"/>
</svg>
